<svg width="16" height="16" viewBox="0 0 16 16" fill="none" xmlns="http://www.w3.org/2000/svg">
<path d="M5.33333 2H3.33333C2.97971 2 2.64057 2.14048 2.39052 2.39052C2.14048 2.64057 2 2.97971 2 3.33333V5.33333" stroke="#4A5565" stroke-width="1.33333" stroke-linecap="round" stroke-linejoin="round"/>
<path d="M13.9993 5.33333V3.33333C13.9993 2.97971 13.8589 2.64057 13.6088 2.39052C13.3588 2.14048 13.0196 2 12.666 2H10.666" stroke="#4A5565" stroke-width="1.33333" stroke-linecap="round" stroke-linejoin="round"/>
<path d="M2 10.6665V12.6665C2 13.0201 2.14048 13.3593 2.39052 13.6093C2.64057 13.8594 2.97971 13.9998 3.33333 13.9998H5.33333" stroke="#4A5565" stroke-width="1.33333" stroke-linecap="round" stroke-linejoin="round"/>
<path d="M10.666 13.9998H12.666C13.0196 13.9998 13.3588 13.8594 13.6088 13.6093C13.8589 13.3593 13.9993 13.0201 13.9993 12.6665V10.6665" stroke="#4A5565" stroke-width="1.33333" stroke-linecap="round" stroke-linejoin="round"/>
</svg>
