<svg width="16" height="16" viewBox="0 0 16 16" fill="none" xmlns="http://www.w3.org/2000/svg">
<path d="M6.66732 2.6665L5.33398 3.99984" stroke="#4A5565" stroke-width="1.33333" stroke-linecap="round" stroke-linejoin="round"/>
<path d="M11.334 12.6665V13.9998" stroke="#4A5565" stroke-width="1.33333" stroke-linecap="round" stroke-linejoin="round"/>
<path d="M1.33398 8H14.6673" stroke="#4A5565" stroke-width="1.33333" stroke-linecap="round" stroke-linejoin="round"/>
<path d="M4.66602 12.6665V13.9998" stroke="#4A5565" stroke-width="1.33333" stroke-linecap="round" stroke-linejoin="round"/>
<path d="M5.99935 3.33336L5.08002 2.41403C4.88722 2.22034 4.64244 2.08667 4.37527 2.02919C4.1081 1.97171 3.83 1.99288 3.57461 2.09014C3.31922 2.1874 3.09749 2.35659 2.93624 2.57722C2.77499 2.79786 2.68113 3.0605 2.66602 3.33336V11.3334C2.66602 11.687 2.80649 12.0261 3.05654 12.2762C3.30659 12.5262 3.64573 12.6667 3.99935 12.6667H11.9993C12.353 12.6667 12.6921 12.5262 12.9422 12.2762C13.1922 12.0261 13.3327 11.687 13.3327 11.3334V8.00003" stroke="#4A5565" stroke-width="1.33333" stroke-linecap="round" stroke-linejoin="round"/>
</svg>
